<?xml version="1.0" encoding="UTF-8"?>
<svg xmlns="http://www.w3.org/2000/svg" xmlns:xlink="http://www.w3.org/1999/xlink" viewBox="0 0 1920 1080">
  <defs>
    <linearGradient id="linear-gradient" x1="956.69" y1=".67" x2="962.5" y2="947.48" gradientUnits="userSpaceOnUse">
      <stop offset="0" stop-color="#f7aa11"/>
      <stop offset="1" stop-color="#8a1b93"/>
    </linearGradient>
    <linearGradient id="linear-gradient-2" x1="197.55" y1="641.46" x2="197.19" y2="757.46" gradientUnits="userSpaceOnUse">
      <stop offset="0" stop-color="#70177a"/>
      <stop offset="1" stop-color="#8a1b93"/>
    </linearGradient>
    <linearGradient id="linear-gradient-3" x1="1497.56" y1="483.59" x2="1499.93" y2="729.54" xlink:href="#linear-gradient-2"/>
  </defs>
  <g id="backgroundColor">
    <rect width="1920" height="1080" fill="url(#linear-gradient)" stroke-width="0"/>
  </g>
  <g id="buildings">
    <g opacity=".29">
      <rect x="139" y="640" width="116" height="362" fill="url(#linear-gradient-2)" stroke-width="0"/>
      <rect x="16" y="462" width="133" height="540" fill="#8a1b93" stroke-width="0"/>
      <rect x="241" y="528" width="106" height="474" fill="#8a1b93" stroke-width="0"/>
      <rect x="393" y="394" width="95" height="608" fill="#8a1b93" stroke-width="0"/>
      <rect x="1788" y="534" width="116" height="468" fill="#8a1b93" stroke-width="0"/>
      <rect x="1656" y="405" width="116" height="597" fill="#8a1b93" stroke-width="0"/>
      <rect x="1442" y="472" width="116" height="530" fill="url(#linear-gradient-3)" stroke-width="0"/>
      <rect x="1357" y="472" width="116" height="530" fill="#8a1b93" stroke-width="0"/>
      <rect x="1242" y="472" width="94" height="530" fill="#8a1b93" stroke-width="0"/>
      <rect x="1137.46" y="654" width="75.07" height="343" fill="#8a1b93" stroke-width="0"/>
      <rect x="1013.46" y="515" width="75.07" height="482" fill="#8a1b93" stroke-width="0"/>
      <rect x="667.46" y="515" width="75.07" height="482" fill="#8a1b93" stroke-width="0"/>
      <rect x="1500" y="686" width="116" height="316" fill="#8a1b93" stroke-width="0"/>
    </g>
  </g>
  <g id="clouds">
    <path d="m843.62,29.18c24.71,6.3,49.8,13.94,75.3,9.94,9.47-1.48,18.92-4.57,28.38-4.2,9.46.36,19.35,5.04,23.46,15.17,2.48,6.12,2.57,13.47,4.98,19.63,7.41,18.92,30.66,16.75,44.22,29.47-8.37,13.94-24.1,20.73-37.11,16.03-8.9-3.22-16.2-11.08-25.29-13.55-13.68-3.72-28.14,5.44-42.31,5.16-12.77-.26-24.27-8.14-36.82-10.4-10.68-1.92-21.82.28-32.53-1.45-17.35-2.79-50.94-24.44-55.09-47.35-5.59-30.84,39.91-21.76,52.82-18.46Z" fill="#f7aa11" opacity=".3" stroke-width="0"/>
    <path d="m517.71,72.45c20.59,1.88,41.64,4.6,61.72-.34,7.46-1.83,14.72-4.71,22.37-5.33s16.14,1.54,20.58,7.81c2.68,3.78,3.57,8.59,6.2,12.41,8.08,11.72,26.55,8.19,38.89,15.28-5.18,9.89-17.08,15.77-28.08,13.87-7.52-1.3-14.28-5.78-21.87-6.57-11.43-1.19-22.04,6.13-33.48,7.23-10.31.99-20.44-3.12-30.8-3.46-8.81-.29-17.53,2.17-26.35,2.01-14.28-.25-43.73-11.38-49.63-26.01-7.94-19.69,29.69-17.88,40.45-16.9Z" fill="#f7aa11" opacity=".3" stroke-width="0"/>
    <path d="m1196.66,47.31c20.59,1.88,41.64,4.6,61.72-.34,7.46-1.83,14.72-4.71,22.37-5.33s16.14,1.54,20.58,7.81c2.68,3.78,3.57,8.59,6.2,12.41,8.08,11.72,26.55,8.19,38.89,15.28-5.18,9.89-17.08,15.77-28.08,13.87-7.52-1.3-14.28-5.78-21.87-6.57-11.43-1.19-22.04,6.13-33.48,7.23-10.31.99-20.44-3.12-30.8-3.46-8.81-.29-17.53,2.17-26.35,2.01-14.28-.25-43.73-11.38-49.63-26.01-7.94-19.69,29.69-17.88,40.45-16.9Z" fill="#f7aa11" opacity=".3" stroke-width="0"/>
    <path d="m336.11,0c1.56,16.84,26.79,34.72,28.22,51.67,4.4,52.07-18.24,36.39,0,72-21.37,37.37-63.69,55.08-84.67,41.33-14.34-9.4-17.64-25.29-32.67-32.67-22.62-11.11-42.25,18.46-67.33,16.67-22.62-1.62-27.38-30.28-48.67-37.33-18.12-6.01-52.4,10.76-70.67,5.29C30.75,108.11,12.96,62.71,16.22,0h319.89Z" fill="#f7aa11" opacity=".3" stroke-width="0"/>
    <path d="m1493.99,123.98c-12.94,2.07-27.59-5.18-31.29-17.75-1.12-3.79-1.29-7.95-3.36-11.32-5.33-8.66-18.58-6.59-27.45-11.55-7.63-4.26-11.21-13.42-12.03-22.12-.63-6.71.35-14.21,5.34-18.76,5.36-4.89,13.4-4.81,20.54-6.12,18.78-3.44,34.72-18.02,53.8-18.64,15.75-.5,30.26,8.68,45.93,10.26,10.65,1.07,21.3-1.43,31.81-3.47,5.4-1.05,10.97-1.98,16.37-.94,15.59,3.01,24.01,20.74,38.62,26.93,4.99,2.12,10.52,2.79,15.39,5.17s9.19,7.37,8.21,12.7c-.42,2.29-1.76,4.3-3.24,6.1-6.68,8.14-16.91,13.26-27.43,13.71-7.32.32-14.96-1.47-21.82,1.11-4.67,1.75-8.37,5.32-12.19,8.52-9.73,8.18-22.3,14.74-34.76,12.22-11.95-2.42-21.32-13.93-33.02-6.35-10.91,7.07-14.9,17.95-29.41,20.28Z" fill="#f7aa11" opacity=".3" stroke-width="0"/>
  </g>
</svg>